<svg width="32" height="32" viewBox="0 0 32 32" fill="none" xmlns="http://www.w3.org/2000/svg"><path d="M24.75 0H17.25C14.5704 0 12.1441 1.47762 10.9036 3.8125H9.75C5.78681 3.8125 2.5625 7.03681 2.5625 11V11.625C2.5625 12.3771 2.70656 13.1169 2.98275 13.8099C1.24825 14.7219 0.0625 16.5418 0.0625 18.6338C0.0625 19.9919 0.56575 21.2933 1.4795 22.2981L6.3125 27.6125V31.0625C6.3125 31.5802 6.73225 32 7.25 32H19.75C20.2677 32 20.6875 31.5802 20.6875 31.0625V28.1875H27.25C27.7677 28.1875 28.1875 27.7677 28.1875 27.25V23.7782C30.6082 20.829 31.9375 17.1222 31.9375 13.3V7.1875C31.9375 3.22431 28.7132 0 24.75 0V0ZM17.25 1.875H24.75C27.6793 1.875 30.0625 4.25819 30.0625 7.1875V9.0625C30.0625 10.6133 28.8008 11.875 27.25 11.875H24.4375V11C24.4375 7.03681 21.2132 3.8125 17.25 3.8125H13.1454C14.1381 2.60431 15.6316 1.875 17.25 1.875ZM4.4375 11.625V11C4.4375 8.07069 6.82069 5.6875 9.75 5.6875H17.25C20.1793 5.6875 22.5625 8.07069 22.5625 11V12.875C22.5625 14.4258 21.3008 15.6875 19.75 15.6875H14.3065C13.8973 14.2464 12.5704 13.1875 11 13.1875H5.50881C5.26 13.1875 5.01513 13.2046 4.77506 13.2371C4.55338 12.7292 4.4375 12.1818 4.4375 11.625ZM1.9375 18.6338C1.9375 16.6646 3.53956 15.0625 5.50881 15.0625H11C11.8616 15.0625 12.5625 15.7634 12.5625 16.625C12.5625 17.4866 11.8616 18.1875 11 18.1875H6C5.48225 18.1875 5.0625 18.6073 5.0625 19.125C5.0625 19.6427 5.48225 20.0625 6 20.0625H11C12.5704 20.0625 13.8973 19.0036 14.3065 17.5625H19.75C20.8044 17.5625 21.7785 17.2123 22.5625 16.6224V17.1125C22.5625 20.4628 21.4099 23.7126 19.3096 26.3125H17.25V25.0625C17.25 22.9948 15.5677 21.3125 13.5 21.3125C11.4323 21.3125 9.75 22.9948 9.75 25.0625V26.3125H7.66463L2.86669 21.0366C2.2675 20.3777 1.9375 19.5244 1.9375 18.6338ZM15.375 26.3125H11.625V25.0625C11.625 24.0286 12.4661 23.1875 13.5 23.1875C14.5339 23.1875 15.375 24.0286 15.375 25.0625V26.3125ZM18.8125 30.125H8.1875V28.1875H18.8125V30.125ZM26.3125 26.3125H21.6376C21.6374 26.3123 21.6372 26.3119 21.6369 26.3117C22.0533 25.6907 22.4258 25.0437 22.7529 24.3756C22.7534 24.3754 22.754 24.3752 22.7546 24.375H26.3125V26.3125ZM26.8096 22.5H23.5333C24.1271 20.7794 24.4375 18.9594 24.4375 17.1125V13.75H27.25C28.3044 13.75 29.2785 13.3998 30.0625 12.8099V13.3C30.0625 16.6502 28.9099 19.9001 26.8096 22.5Z" fill="#FF5824"/></svg>
