<svg width="18" height="17" viewBox="0 0 18 17" fill="none" xmlns="http://www.w3.org/2000/svg"><path d="M12 7.9375H6C5.85082 7.9375 5.70774 7.87824 5.60225 7.77275C5.49676 7.66726 5.4375 7.52418 5.4375 7.375C5.4375 7.22582 5.49676 7.08274 5.60225 6.97725C5.70774 6.87176 5.85082 6.8125 6 6.8125H12C12.1492 6.8125 12.2923 6.87176 12.3977 6.97725C12.5032 7.08274 12.5625 7.22582 12.5625 7.375C12.5625 7.52418 12.5032 7.66726 12.3977 7.77275C12.2923 7.87824 12.1492 7.9375 12 7.9375Z" fill="white"/><path d="M9.75 10.9377H6C5.85082 10.9377 5.70774 10.8785 5.60225 10.773C5.49676 10.6675 5.4375 10.5244 5.4375 10.3752C5.4375 10.2261 5.49676 10.083 5.60225 9.9775C5.70774 9.87201 5.85082 9.81274 6 9.81274H9.75C9.89918 9.81274 10.0423 9.87201 10.1477 9.9775C10.2532 10.083 10.3125 10.2261 10.3125 10.3752C10.3125 10.5244 10.2532 10.6675 10.1477 10.773C10.0423 10.8785 9.89918 10.9377 9.75 10.9377Z" fill="white"/><path d="M9 16.1875H3.3105C3.05101 16.1874 2.79738 16.1103 2.58166 15.9661C2.36594 15.8219 2.19781 15.6169 2.09853 15.3772C1.99924 15.1374 1.97325 14.8736 2.02384 14.6191C2.07443 14.3646 2.19933 14.1308 2.38275 13.9472L2.856 13.474C1.6228 12.1107 0.939202 10.3383 0.9375 8.49999C0.990579 6.41253 1.86899 4.43123 3.38026 2.99026C4.89152 1.54929 6.91238 0.766163 9 0.812491C11.0876 0.766163 13.1085 1.54929 14.6197 2.99026C16.131 4.43123 17.0094 6.41253 17.0625 8.49999C17.0094 10.5875 16.131 12.5687 14.6197 14.0097C13.1085 15.4507 11.0876 16.2338 9 16.1875ZM9 1.93749C7.2107 1.89107 5.47593 2.55564 4.17563 3.78566C2.87532 5.01567 2.11548 6.71088 2.0625 8.49999C2.06563 9.3562 2.242 10.2029 2.58099 10.9892C2.91998 11.7754 3.41458 12.4849 4.035 13.075C4.14251 13.1804 4.20375 13.3242 4.20525 13.4747C4.206 13.5493 4.19186 13.6233 4.16366 13.6923C4.13545 13.7613 4.09375 13.824 4.041 13.8767L3.17775 14.7392C3.15182 14.7656 3.13423 14.799 3.12717 14.8353C3.12011 14.8716 3.1239 14.9092 3.13806 14.9433C3.15222 14.9775 3.17612 15.0067 3.20679 15.0274C3.23746 15.048 3.27353 15.0592 3.3105 15.0595H9C10.7888 15.1059 12.5231 14.4418 13.8233 13.2124C15.1236 11.983 15.8837 10.2886 15.9375 8.49999C15.8845 6.71088 15.1247 5.01567 13.8244 3.78566C12.5241 2.55564 10.7893 1.89107 9 1.93749Z" fill="white"/></svg>
