<svg width="28" height="28" viewBox="0 0 28 28" fill="none" xmlns="http://www.w3.org/2000/svg"><path d="M19.8327 25.375H15.166C14.934 25.375 14.7114 25.2828 14.5473 25.1187C14.3832 24.9546 14.291 24.7321 14.291 24.5C14.291 24.2679 14.3832 24.0454 14.5473 23.8813C14.7114 23.7172 14.934 23.625 15.166 23.625H19.8327C20.0647 23.625 20.2873 23.7172 20.4514 23.8813C20.6155 24.0454 20.7077 24.2679 20.7077 24.5C20.7077 24.7321 20.6155 24.9546 20.4514 25.1187C20.2873 25.2828 20.0647 25.375 19.8327 25.375Z" fill="#031520"/><path d="M7.00065 25.375H5.83398C4.67366 25.375 3.56086 24.9141 2.74039 24.0936C1.91992 23.2731 1.45898 22.1603 1.45898 21C1.45898 19.8397 1.91992 18.7269 2.74039 17.9064C3.56086 17.0859 4.67366 16.625 5.83398 16.625H7.00065C7.54195 16.6256 8.06089 16.8409 8.44365 17.2237C8.8264 17.6064 9.0417 18.1254 9.04232 18.6667V23.3333C9.0417 23.8746 8.8264 24.3936 8.44365 24.7763C8.06089 25.1591 7.54195 25.3744 7.00065 25.375ZM5.83398 18.375C5.13779 18.375 4.47011 18.6516 3.97783 19.1438C3.48555 19.6361 3.20898 20.3038 3.20898 21C3.20898 21.6962 3.48555 22.3639 3.97783 22.8562C4.47011 23.3484 5.13779 23.625 5.83398 23.625H7.00065C7.07801 23.625 7.15219 23.5943 7.20689 23.5396C7.26159 23.4849 7.29232 23.4107 7.29232 23.3333V18.6667C7.29232 18.5893 7.26159 18.5151 7.20689 18.4604C7.15219 18.4057 7.07801 18.375 7.00065 18.375H5.83398Z" fill="#031520"/><path d="M22.1673 25.375H19.834C19.6019 25.375 19.3794 25.2828 19.2153 25.1187C19.0512 24.9546 18.959 24.7321 18.959 24.5V18.6667C18.9596 18.1254 19.1749 17.6064 19.5577 17.2237C19.9404 16.8409 20.4594 16.6256 21.0007 16.625H22.1673C23.3276 16.625 24.4404 17.0859 25.2609 17.9064C26.0814 18.7269 26.5423 19.8397 26.5423 21C26.5423 22.1603 26.0814 23.2731 25.2609 24.0936C24.4404 24.9141 23.3276 25.375 22.1673 25.375ZM20.709 23.625H22.1673C22.8635 23.625 23.5312 23.3484 24.0235 22.8562C24.5158 22.3639 24.7923 21.6962 24.7923 21C24.7923 20.3038 24.5158 19.6361 24.0235 19.1438C23.5312 18.6516 22.8635 18.375 22.1673 18.375H21.0007C20.9233 18.375 20.8491 18.4057 20.7944 18.4604C20.7397 18.5151 20.709 18.5893 20.709 18.6667V23.625Z" fill="#031520"/><path d="M5.83398 18.375C5.60192 18.375 5.37936 18.2828 5.21527 18.1187C5.05117 17.9546 4.95898 17.7321 4.95898 17.5V11.6667C4.95898 9.26867 5.91159 6.96888 7.60723 5.27324C9.30287 3.5776 11.6027 2.625 14.0007 2.625C16.3987 2.625 18.6984 3.5776 20.3941 5.27324C22.0897 6.96888 23.0423 9.26867 23.0423 11.6667V15.1667C23.0423 15.3987 22.9501 15.6213 22.786 15.7854C22.6219 15.9495 22.3994 16.0417 22.1673 16.0417C21.9353 16.0417 21.7127 15.9495 21.5486 15.7854C21.3845 15.6213 21.2923 15.3987 21.2923 15.1667V11.6667C21.2923 9.7328 20.5241 7.87813 19.1566 6.51068C17.7892 5.14323 15.9345 4.375 14.0007 4.375C12.0668 4.375 10.2121 5.14323 8.84466 6.51068C7.47721 7.87813 6.70898 9.7328 6.70898 11.6667V17.5C6.70898 17.7321 6.6168 17.9546 6.4527 18.1187C6.28861 18.2828 6.06605 18.375 5.83398 18.375Z" fill="#031520"/></svg>
