<svg width="28" height="28" viewBox="0 0 28 28" fill="none" xmlns="http://www.w3.org/2000/svg"><g clip-path="url(#clip0_246_5825)"><path d="M21.1466 16.6471C19.2004 16.6471 17.6172 18.2304 17.6172 20.1765C17.6172 22.1227 19.2004 23.7059 21.1466 23.7059C23.0931 23.7059 24.676 22.1227 24.676 20.1765C24.676 18.2304 23.0928 16.6471 21.1466 16.6471ZM21.1466 21.9412C20.1734 21.9412 19.3819 21.1497 19.3819 20.1765C19.3819 19.2033 20.1734 18.4118 21.1466 18.4118C22.1198 18.4118 22.9113 19.2033 22.9113 20.1765C22.9113 21.1498 22.1198 21.9412 21.1466 21.9412Z" fill="#031520"/><path d="M9.08802 16.6471C7.14185 16.6471 5.55859 18.2304 5.55859 20.1765C5.55859 22.1227 7.14185 23.7059 9.08802 23.7059C11.0342 23.7059 12.6174 22.1227 12.6174 20.1765C12.6174 18.2304 11.0342 16.6471 9.08802 16.6471ZM9.08802 21.9412C8.1148 21.9412 7.3233 21.1497 7.3233 20.1765C7.3233 19.2033 8.1148 18.4118 9.08802 18.4118C10.061 18.4118 10.8527 19.2033 10.8527 20.1765C10.8527 21.1498 10.0612 21.9412 9.08802 21.9412Z" fill="#031520"/><path d="M23.5235 6.54474C23.3735 6.2468 23.0685 6.05884 22.735 6.05884H18.0879V7.82355H22.1908L24.5935 12.6024L26.1705 11.8094L23.5235 6.54474Z" fill="#031520"/><path d="M18.4997 19.3236H11.8232V21.0883H18.4997V19.3236Z" fill="#031520"/><path d="M6.44111 19.3236H3.38233C2.89495 19.3236 2.5 19.7186 2.5 20.2059C2.5 20.6933 2.89501 21.0883 3.38233 21.0883H6.44116C6.92854 21.0883 7.32349 20.6933 7.32349 20.2059C7.32349 19.7186 6.92848 19.3236 6.44111 19.3236Z" fill="#031520"/><path d="M27.8147 13.9293L26.0791 11.6941C25.9124 11.4787 25.655 11.3529 25.3823 11.3529H18.9706V5.1764C18.9706 4.68902 18.5756 4.29407 18.0882 4.29407H3.38233C2.89495 4.29407 2.5 4.68907 2.5 5.1764C2.5 5.66372 2.89501 6.05872 3.38233 6.05872H17.2059V12.2352C17.2059 12.7226 17.6009 13.1175 18.0882 13.1175H24.9503L26.2352 14.7728V19.3234H23.7941C23.3067 19.3234 22.9117 19.7184 22.9117 20.2057C22.9117 20.6931 23.3067 21.0881 23.7941 21.0881H27.1176C27.605 21.0881 27.9999 20.693 28 20.2057V14.4705C28 14.2746 27.9347 14.0841 27.8147 13.9293Z" fill="#031520"/><path d="M6.38259 14.8529H2.32373C1.83636 14.8529 1.44141 15.2479 1.44141 15.7352C1.44141 16.2226 1.83641 16.6176 2.32373 16.6176H6.38253C6.86991 16.6176 7.26486 16.2226 7.26486 15.7352C7.26491 15.2479 6.86991 14.8529 6.38259 14.8529Z" fill="#031520"/><path d="M8.41176 11.3823H0.882328C0.395008 11.3823 0 11.7773 0 12.2647C0 12.7521 0.395008 13.147 0.882328 13.147H8.41176C8.89913 13.147 9.29409 12.752 9.29409 12.2647C9.29409 11.7774 8.89913 11.3823 8.41176 11.3823Z" fill="#031520"/><path d="M9.85316 7.91174H2.32373C1.83636 7.91174 1.44141 8.30675 1.44141 8.79407C1.44141 9.28145 1.83641 9.6764 2.32373 9.6764H9.85316C10.3405 9.6764 10.7355 9.28139 10.7355 8.79407C10.7355 8.30675 10.3405 7.91174 9.85316 7.91174Z" fill="#031520"/></g><defs><clipPath id="clip0_246_5825"><rect width="28" height="28" fill="white"/></clipPath></defs></svg>
