<svg width="28" height="28" viewBox="0 0 28 28" fill="none" xmlns="http://www.w3.org/2000/svg"><path d="M18.6665 10.208H5.83322C5.66027 10.2078 5.49125 10.1564 5.34749 10.0603C5.20374 9.96412 5.09171 9.82752 5.02555 9.66773C4.95938 9.50794 4.94206 9.33212 4.97576 9.16249C5.00945 8.99286 5.09267 8.83702 5.21488 8.71465L11.3165 2.61298C11.5169 2.41408 11.7564 2.25887 12.0198 2.15716C12.2832 2.05545 12.5648 2.00945 12.8469 2.02206C13.1289 2.03466 13.4053 2.10561 13.6586 2.23041C13.9119 2.35521 14.1365 2.53116 14.3184 2.74715L16.6902 5.58682C16.839 5.76504 16.911 5.99509 16.8902 6.22636C16.8694 6.45762 16.7576 6.67115 16.5794 6.81998C16.4012 6.96881 16.1711 7.04075 15.9398 7.01996C15.7086 6.99918 15.495 6.88738 15.3462 6.70915L12.979 3.87415C12.9522 3.84283 12.9191 3.81736 12.882 3.7993C12.8449 3.78124 12.8045 3.77098 12.7632 3.76915C12.7245 3.76696 12.6858 3.773 12.6496 3.78688C12.6134 3.80075 12.5805 3.82215 12.5532 3.84965L7.94605 8.45798H18.6665C18.8986 8.45798 19.1212 8.55017 19.2853 8.71427C19.4494 8.87836 19.5415 9.10092 19.5415 9.33298C19.5415 9.56505 19.4494 9.78761 19.2853 9.9517C19.1212 10.1158 18.8986 10.208 18.6665 10.208Z" fill="white"/><path d="M23.3332 10.2083H12.8332C12.6603 10.2082 12.4912 10.1568 12.3475 10.0606C12.2037 9.96444 12.0917 9.82784 12.0255 9.66805C11.9594 9.50826 11.9421 9.33245 11.9758 9.16282C12.0095 8.99318 12.0927 8.83734 12.2149 8.71497L17.1265 3.80331C17.3295 3.60103 17.5728 3.44374 17.8406 3.34167C18.1083 3.2396 18.3946 3.19504 18.6807 3.21089C18.9668 3.22673 19.2464 3.30263 19.5012 3.43365C19.7561 3.56466 19.9805 3.74785 20.1599 3.97131L24.0099 8.78614C24.1127 8.9144 24.1773 9.06902 24.1962 9.23228C24.2152 9.39554 24.1878 9.56085 24.1172 9.70927C24.0466 9.85769 23.9356 9.98322 23.7969 10.0715C23.6583 10.1597 23.4976 10.2072 23.3332 10.2083ZM14.946 8.45831H21.512L18.7972 5.06447C18.7718 5.03232 18.7399 5.00598 18.7034 4.98726C18.667 4.96854 18.627 4.95787 18.586 4.95597C18.5038 4.95447 18.424 4.98453 18.3632 5.03997L14.946 8.45831Z" fill="white"/><path d="M25.667 21.2913H21.292C20.3637 21.2913 19.4735 20.9225 18.8171 20.2661C18.1607 19.6098 17.792 18.7195 17.792 17.7913C17.792 16.863 18.1607 15.9728 18.8171 15.3164C19.4735 14.66 20.3637 14.2913 21.292 14.2913H23.3337C23.5657 14.2913 23.7883 14.3834 23.9524 14.5475C24.1165 14.7116 24.2087 14.9342 24.2087 15.1663C24.2087 15.3983 24.1165 15.6209 23.9524 15.785C23.7883 15.9491 23.5657 16.0413 23.3337 16.0413H21.292C20.8279 16.0413 20.3827 16.2256 20.0546 16.5538C19.7264 16.882 19.542 17.3271 19.542 17.7913C19.542 18.2554 19.7264 18.7005 20.0546 19.0287C20.3827 19.3569 20.8279 19.5413 21.292 19.5413H25.667C25.8991 19.5413 26.1216 19.6334 26.2857 19.7975C26.4498 19.9616 26.542 20.1842 26.542 20.4163C26.542 20.6483 26.4498 20.8709 26.2857 21.035C26.1216 21.1991 25.8991 21.2913 25.667 21.2913Z" fill="white"/><path d="M22.1673 10.208H4.66732C3.8166 10.2074 3.00091 9.86921 2.39937 9.26767C1.79782 8.66612 1.4596 7.85043 1.45898 6.99972C1.46328 6.15014 1.80268 5.33658 2.40343 4.73582C3.00418 4.13507 3.81774 3.79567 4.66732 3.79138H7.00065C7.23272 3.79138 7.45528 3.88357 7.61937 4.04766C7.78346 4.21176 7.87565 4.43432 7.87565 4.66638C7.87565 4.89845 7.78346 5.12101 7.61937 5.2851C7.45528 5.44919 7.23272 5.54138 7.00065 5.54138H4.66732C4.47781 5.53993 4.28995 5.57668 4.11495 5.64944C3.93996 5.72221 3.78143 5.82949 3.64882 5.96488C3.50913 6.0985 3.39809 6.25916 3.32248 6.43707C3.24686 6.61497 3.20825 6.80641 3.20898 6.99972C3.2096 7.3863 3.36345 7.75687 3.6368 8.03023C3.91016 8.30359 4.28073 8.45743 4.66732 8.45805H22.1673C22.3994 8.45805 22.6219 8.55024 22.786 8.71433C22.9501 8.87842 23.0423 9.10098 23.0423 9.33305C23.0423 9.56511 22.9501 9.78767 22.786 9.95177C22.6219 10.1159 22.3994 10.208 22.1673 10.208Z" fill="white"/><path d="M22.1673 26.5417H5.83398C4.67404 26.5404 3.56196 26.0791 2.74176 25.2589C1.92155 24.4387 1.46022 23.3266 1.45898 22.1667V7C1.45898 6.76794 1.55117 6.54538 1.71527 6.38128C1.87936 6.21719 2.10192 6.125 2.33398 6.125C2.56605 6.125 2.78861 6.21719 2.9527 6.38128C3.1168 6.54538 3.20898 6.76794 3.20898 7V22.1667C3.2096 22.8627 3.48636 23.53 3.97851 24.0221C4.47066 24.5143 5.13798 24.791 5.83398 24.7917H22.1673C22.8633 24.791 23.5306 24.5143 24.0228 24.0221C24.5149 23.53 24.7917 22.8627 24.7923 22.1667V12.8333C24.7917 12.1373 24.5149 11.47 24.0228 10.9779C23.5306 10.4857 22.8633 10.209 22.1673 10.2083H5.83398C5.60192 10.2083 5.37936 10.1161 5.21527 9.95205C5.05117 9.78796 4.95898 9.5654 4.95898 9.33333C4.95898 9.10127 5.05117 8.87871 5.21527 8.71461C5.37936 8.55052 5.60192 8.45833 5.83398 8.45833H22.1673C23.3273 8.45957 24.4393 8.9209 25.2595 9.74111C26.0798 10.5613 26.5411 11.6734 26.5423 12.8333V22.1667C26.5411 23.3266 26.0798 24.4387 25.2595 25.2589C24.4393 26.0791 23.3273 26.5404 22.1673 26.5417Z" fill="white"/></svg>
