<svg width="18" height="18" viewBox="0 0 18 18" fill="none" xmlns="http://www.w3.org/2000/svg"><path d="M8.9915 0.666748C4.3915 0.666748 0.666504 4.40008 0.666504 9.00008C0.666504 13.6001 4.3915 17.3334 8.9915 17.3334C13.5998 17.3334 17.3332 13.6001 17.3332 9.00008C17.3332 4.40008 13.5998 0.666748 8.9915 0.666748ZM14.7665 5.66675H12.3082C12.0415 4.62508 11.6582 3.62508 11.1582 2.70008C12.6915 3.22508 13.9665 4.29175 14.7665 5.66675ZM8.99984 2.36675C9.6915 3.36675 10.2332 4.47508 10.5915 5.66675H7.40817C7.7665 4.47508 8.30817 3.36675 8.99984 2.36675ZM2.54984 10.6667C2.4165 10.1334 2.33317 9.57508 2.33317 9.00008C2.33317 8.42508 2.4165 7.86675 2.54984 7.33342H5.3665C5.29984 7.88342 5.24984 8.43341 5.24984 9.00008C5.24984 9.56675 5.29984 10.1167 5.3665 10.6667H2.54984ZM3.23317 12.3334H5.6915C5.95817 13.3751 6.3415 14.3751 6.8415 15.3001C5.30817 14.7751 4.03317 13.7167 3.23317 12.3334ZM5.6915 5.66675H3.23317C4.03317 4.28341 5.30817 3.22508 6.8415 2.70008C6.3415 3.62508 5.95817 4.62508 5.6915 5.66675ZM8.99984 15.6334C8.30817 14.6334 7.7665 13.5251 7.40817 12.3334H10.5915C10.2332 13.5251 9.6915 14.6334 8.99984 15.6334ZM10.9498 10.6667H7.04984C6.97484 10.1167 6.9165 9.56675 6.9165 9.00008C6.9165 8.43341 6.97484 7.87508 7.04984 7.33342H10.9498C11.0248 7.87508 11.0832 8.43341 11.0832 9.00008C11.0832 9.56675 11.0248 10.1167 10.9498 10.6667ZM11.1582 15.3001C11.6582 14.3751 12.0415 13.3751 12.3082 12.3334H14.7665C13.9665 13.7084 12.6915 14.7751 11.1582 15.3001ZM12.6332 10.6667C12.6998 10.1167 12.7498 9.56675 12.7498 9.00008C12.7498 8.43341 12.6998 7.88342 12.6332 7.33342H15.4498C15.5832 7.86675 15.6665 8.42508 15.6665 9.00008C15.6665 9.57508 15.5832 10.1334 15.4498 10.6667H12.6332Z" fill="white"/></svg>
