<svg width="32" height="32" viewBox="0 0 32 32" fill="none" xmlns="http://www.w3.org/2000/svg"><path d="M31 26.375H21.9375V23.4375C21.9375 21.8671 20.8786 20.5403 19.4375 20.131V14.2646C21.2269 13.8401 22.5625 12.2298 22.5625 10.3124V5.625H24.4375V8.4375C24.4375 8.95525 24.8573 9.375 25.375 9.375H29.125C29.6427 9.375 30.0625 8.95525 30.0625 8.4375V0.9375C30.0625 0.41975 29.6427 0 29.125 0H25.375C24.8573 0 24.4375 0.41975 24.4375 0.9375V3.75H7.5625V0.9375C7.5625 0.41975 7.14275 0 6.625 0H2.875C2.35725 0 1.9375 0.41975 1.9375 0.9375V8.4375C1.9375 8.95525 2.35725 9.375 2.875 9.375H6.625C7.14275 9.375 7.5625 8.95525 7.5625 8.4375V5.625H9.4375V10.3125C9.4375 12.2298 10.7731 13.8401 12.5625 14.2646V20.1311C11.1214 20.5402 10.0625 21.8671 10.0625 23.4376V26.3751H1C0.48225 26.3751 0.0625 26.7948 0.0625 27.3126V31.0626C0.0625 31.5803 0.48225 32.0001 1 32.0001H31C31.5177 32.0001 31.9375 31.5803 31.9375 31.0626V27.3126C31.9375 26.7948 31.5177 26.375 31 26.375ZM26.3125 1.875H28.1875V7.5H26.3125V1.875ZM5.6875 7.5H3.8125V1.875H5.6875V7.5ZM14.4375 10.9375C14.4375 10.0759 15.1384 9.375 16 9.375C16.8616 9.375 17.5625 10.0759 17.5625 10.9375C17.5625 11.7991 16.8616 12.5 16 12.5C15.1384 12.5 14.4375 11.7991 14.4375 10.9375ZM14.4375 14.375H17.5625V20H14.4375V14.375ZM11.3125 10.3125V5.625H20.6875V10.3125C20.6875 11.3094 20.0169 12.1521 19.1033 12.4147C19.3174 11.9669 19.4375 11.466 19.4375 10.9375C19.4375 9.04206 17.8954 7.5 16 7.5C14.1046 7.5 12.5625 9.04206 12.5625 10.9375C12.5625 11.466 12.6826 11.9669 12.8967 12.4147C11.9831 12.1521 11.3125 11.3094 11.3125 10.3125ZM11.9375 23.4375C11.9375 22.5759 12.6384 21.875 13.5 21.875H18.5C19.3616 21.875 20.0625 22.5759 20.0625 23.4375V26.375H11.9375V23.4375ZM30.0625 30.125H1.9375V28.25H30.0625V30.125Z" fill="#FF5824"/></svg>
